<svg xmlns="http://www.w3.org/2000/svg" version="1.1" xmlns:xlink="http://www.w3.org/1999/xlink" xmlns:svgjs="http://svgjs.dev/svgjs" width="1500" height="1500" viewBox="0 0 1500 1500"><rect width="1500" height="1500" fill="#ffffff"></rect><g transform="matrix(0.6666666666666666,0,0,0.6666666666666666,249.39393939414867,562.0093970559491)"><svg viewBox="0 0 396 149" data-background-color="#d2d6dc" preserveAspectRatio="xMidYMid meet" height="564" width="1500" xmlns="http://www.w3.org/2000/svg" xmlns:xlink="http://www.w3.org/1999/xlink"><g id="tight-bounds" transform="matrix(1,0,0,1,0.2399999999171314,-0.0037238333415103853)"><svg viewBox="0 0 395.52 149.00744766668302" height="149.00744766668302" width="395.52"><g><svg viewBox="0 0 395.52 149.00744766668302" height="149.00744766668302" width="395.52"><g transform="matrix(1,0,0,1,0,92.09258054033413)"><svg viewBox="0 0 395.52 56.914867126348895" height="56.914867126348895" width="395.52"><g id="textblocktransform"><svg viewBox="0 0 395.52 56.914867126348895" height="56.914867126348895" width="395.52" id="textblock"><g><svg viewBox="0 0 395.52 56.914867126348895" height="56.914867126348895" width="395.52"><g transform="matrix(1,0,0,1,0,0)"><svg width="395.52" viewBox="2.4 -32.5 229.31181818172203 33" height="56.914867126348895" data-palette-color="#6b7280"><path d="M12.75-32.5L12.75-32.5Q14.3-32.5 15.33-32.33 16.35-32.15 17.43-31.85 18.5-31.55 20.1-31.15L20.1-31.15Q20.4-29.25 20.58-27.23 20.75-25.2 20.8-24.2L20.8-24.2Q20.85-23.95 20.45-23.83 20.05-23.7 19.8-23.7L19.8-23.7Q19.45-23.7 19.25-23.9L19.25-23.9Q19.15-24.8 18.65-26 18.15-27.2 17.28-28.3 16.4-29.4 15.18-30.13 13.95-30.85 12.4-30.85L12.4-30.85Q10.4-30.85 9.25-30 8.1-29.15 7.6-27.9 7.1-26.65 7.1-25.45L7.1-25.45Q7.1-23.5 8.13-22.2 9.15-20.9 10.73-19.9 12.3-18.9 13.9-17.85L13.9-17.85Q15.1-17.1 16.55-16.2 18-15.3 19.35-14.2 20.7-13.1 21.55-11.68 22.4-10.25 22.4-8.45L22.4-8.45Q22.4-5.8 20.93-3.78 19.45-1.75 17.13-0.63 14.8 0.5 12.2 0.5L12.2 0.5Q9.75 0.5 7.48-0.05 5.2-0.6 3.4-0.95L3.4-0.95Q3.1-2.4 2.88-4.05 2.65-5.7 2.53-6.95 2.4-8.2 2.4-8.5L2.4-8.5Q2.65-8.75 2.98-8.93 3.3-9.1 3.65-9.1L3.65-9.1Q4.1-9.1 4.2-8.65L4.2-8.65Q4.35-7.95 4.83-6.73 5.3-5.5 6.23-4.2 7.15-2.9 8.63-2.02 10.1-1.15 12.3-1.15L12.3-1.15Q14.65-1.15 16.4-2.73 18.15-4.3 18.15-7.15L18.15-7.15Q18.15-9.2 17.23-10.35 16.3-11.5 14.83-12.35 13.35-13.2 11.65-14.15L11.65-14.15Q9.8-15.25 7.83-16.57 5.85-17.9 4.5-19.7 3.15-21.5 3.15-23.95L3.15-23.95Q3.15-26.55 4.53-28.48 5.9-30.4 8.1-31.45 10.3-32.5 12.75-32.5ZM29.15-6.8L29.15-6.8Q29.15-6.8 29.62-8.03 30.1-9.25 30.9-11.35 31.7-13.45 32.72-16.03 33.75-18.6 34.8-21.33 35.85-24.05 36.82-26.55 37.8-29.05 38.55-30.95L38.55-30.95Q38.75-31.35 39.42-31.85 40.1-32.35 40.45-32.35L40.45-32.35Q40.55-32.35 40.57-32.33 40.6-32.3 40.7-32.25L40.7-32.25 50.65-6.15Q51.75-3.25 51.9-2.95L51.9-2.95Q52.15-2.4 52.87-2 53.6-1.6 54.32-1.43 55.05-1.25 55.25-1.25L55.25-1.25Q55.45-1 55.4-0.48 55.35 0.05 55.3 0.15L55.3 0.15Q53.85 0.05 52.7-0.03 51.55-0.1 49.95-0.1L49.95-0.1Q48.25-0.1 47.12-0.03 46 0.05 44.3 0.15L44.3 0.15Q44.1-0.05 44.12-0.55 44.15-1.05 44.35-1.25L44.35-1.25Q44.8-1.25 45.75-1.43 46.7-1.6 47.05-1.9L47.05-1.9Q47.25-2.1 47.25-2.6L47.25-2.6Q47.25-3.05 46.92-4.13 46.6-5.2 46.1-6.55 45.6-7.9 45.1-9.18 44.6-10.45 44.27-11.28 43.95-12.1 43.95-12.1L43.95-12.1Q43.95-12.1 43.85-12.2 43.75-12.3 43.65-12.3L43.65-12.3Q42.9-12.35 41.8-12.35 40.7-12.35 39.75-12.35L39.75-12.35Q39.5-12.35 39.25-12.35 39-12.35 38.8-12.35L38.8-12.35Q37.3-12.35 36.25-12.33 35.2-12.3 33.55-12.2L33.55-12.2Q33.5-12.2 33.4-12.13 33.3-12.05 33.3-12.05L33.3-12.05Q33.3-12.05 32.92-11.05 32.55-10.05 32.02-8.68 31.5-7.3 31.1-6.1L31.1-6.1Q30.65-4.85 30.52-4 30.4-3.15 30.4-2.65L30.4-2.65Q30.4-2.1 31.17-1.78 31.95-1.45 32.77-1.35 33.6-1.25 33.8-1.25L33.8-1.25Q33.9-1.15 33.95-0.63 34-0.1 33.9 0.15L33.9 0.15Q32.95 0.1 32.27 0.05 31.6 0 30.92-0.05 30.25-0.1 29.15-0.1L29.15-0.1Q28.05-0.1 27.3-0.05 26.55 0 25.8 0.05 25.05 0.1 23.9 0.15L23.9 0.15Q23.8 0.05 23.8-0.48 23.8-1 23.9-1.25L23.9-1.25Q24.35-1.25 25.42-1.48 26.5-1.7 26.85-2.2L26.85-2.2Q27.6-3.15 28.12-4.33 28.65-5.5 29.15-6.8ZM43-14.65L38.7-26.45 34.25-14.55Q34.25-14.55 34.27-14.45 34.3-14.35 34.35-14.35L34.35-14.35Q35.3-14.3 36.62-14.28 37.95-14.25 38.75-14.25L38.75-14.25Q39.9-14.25 40.82-14.3 41.75-14.35 42.85-14.4L42.85-14.4Q42.95-14.4 42.97-14.53 43-14.65 43-14.65L43-14.65ZM63.09-32.1L63.09-32.1Q66.55-32.1 70.69-32.25 74.84-32.4 78.8-32.4L78.8-32.4Q79.05-30.55 79.44-29 79.84-27.45 80.19-25.8L80.19-25.8Q79.94-25.55 79.34-25.55L79.34-25.55Q78.69-25.55 78.64-25.9L78.64-25.9Q77.84-28.85 76.39-29.65 74.94-30.45 73-30.45L73-30.45 68.8-30.45Q68.5-30.45 67.69-30.43 66.89-30.4 66.19-30.3 65.5-30.2 65.39-29.95L65.39-29.95Q65.25-29.45 65.22-28.65 65.19-27.85 65.19-27L65.19-27Q65.19-26.65 65.19-26.45L65.19-26.45 65.19-17.35Q65.19-17.15 65.84-17.1 66.5-17.05 67.3-17.05L67.3-17.05 69.84-17.05Q71.59-17.05 72.57-17.15 73.55-17.25 74-17.6 74.44-17.95 74.69-18.65 74.94-19.35 75.25-20.55L75.25-20.55Q75.3-20.9 75.94-20.9L75.94-20.9Q76.55-20.9 76.8-20.65L76.8-20.65 76.8-11.45Q76.59-11.25 76-11.25L76-11.25Q75.39-11.25 75.25-11.6L75.25-11.6Q74.89-13 74.67-13.63 74.44-14.25 74.27-14.48 74.09-14.7 73.84-14.85L73.84-14.85Q73.59-15.05 72.69-15.13 71.8-15.2 70.72-15.23 69.64-15.25 68.69-15.25L68.69-15.25Q68.05-15.25 67.22-15.23 66.39-15.2 65.8-15.13 65.19-15.05 65.19-14.8L65.19-14.8 65.19-5.65Q65.19-5.5 65.19-5.35 65.19-5.2 65.19-5.05L65.19-5.05Q65.19-4.1 65.22-3.33 65.25-2.55 65.39-2.05L65.39-2.05Q65.5-1.8 66.32-1.6 67.14-1.4 68.07-1.33 69-1.25 69.3-1.25L69.3-1.25Q69.44-1.05 69.47-0.55 69.5-0.05 69.3 0.15L69.3 0.15Q67.8 0.05 66.17-0.03 64.55-0.1 63.09-0.1L63.09-0.1Q61.39-0.1 60.07 0.03 58.74 0.15 57.3 0.15L57.3 0.15Q57.09-0.05 57.12-0.55 57.14-1.05 57.3-1.25L57.3-1.25Q57.59-1.25 58.39-1.33 59.2-1.4 59.92-1.6 60.64-1.8 60.7-2.05L60.7-2.05Q60.89-2.65 60.92-3.6 60.95-4.55 60.95-5.65L60.95-5.65 60.95-26.5Q60.95-27.6 60.92-28.58 60.89-29.55 60.7-30.15L60.7-30.15Q60.64-30.45 59.92-30.6 59.2-30.75 58.39-30.83 57.59-30.9 57.3-30.9L57.3-30.9Q57.14-31.1 57.12-31.6 57.09-32.1 57.3-32.3L57.3-32.3Q58.8-32.25 60.24-32.18 61.7-32.1 63.09-32.1ZM89.19-32.1L89.19-32.1Q92.64-32.1 96.79-32.25 100.94-32.4 104.89-32.4L104.89-32.4Q105.14-30.55 105.54-29 105.94-27.45 106.29-25.8L106.29-25.8Q106.04-25.55 105.44-25.55L105.44-25.55Q104.79-25.55 104.74-25.9L104.74-25.9Q103.94-28.85 102.49-29.65 101.04-30.45 99.09-30.45L99.09-30.45 94.89-30.45Q94.59-30.45 93.79-30.43 92.99-30.4 92.29-30.3 91.59-30.2 91.49-29.95L91.49-29.95Q91.34-29.45 91.32-28.65 91.29-27.85 91.29-27L91.29-27Q91.29-26.65 91.29-26.45L91.29-26.45 91.29-17.35Q91.29-17.15 91.94-17.1 92.59-17.05 93.39-17.05L93.39-17.05 95.94-17.05Q97.69-17.05 98.67-17.15 99.64-17.25 100.09-17.6 100.54-17.95 100.79-18.65 101.04-19.35 101.34-20.55L101.34-20.55Q101.39-20.9 102.04-20.9L102.04-20.9Q102.64-20.9 102.89-20.65L102.89-20.65 102.89-11.45Q102.69-11.25 102.09-11.25L102.09-11.25Q101.49-11.25 101.34-11.6L101.34-11.6Q100.99-13 100.77-13.63 100.54-14.25 100.37-14.48 100.19-14.7 99.94-14.85L99.94-14.85Q99.69-15.05 98.79-15.13 97.89-15.2 96.82-15.23 95.74-15.25 94.79-15.25L94.79-15.25Q94.14-15.25 93.32-15.23 92.49-15.2 91.89-15.13 91.29-15.05 91.29-14.8L91.29-14.8 91.29-5.5Q91.29-5.4 91.29-5.2L91.29-5.2Q91.29-4.5 91.32-3.4 91.34-2.3 91.54-2.15L91.54-2.15Q92.04-1.8 92.77-1.73 93.49-1.65 95.04-1.65L95.04-1.65 97.39-1.65Q99.14-1.65 100.84-2 102.54-2.35 103.54-3L103.54-3Q104.69-3.7 105.34-5.03 105.99-6.35 106.59-7.9L106.59-7.9Q106.69-8.2 107.29-8.2L107.29-8.2Q108.19-8.2 108.49-7.9L108.49-7.9Q107.79-5.9 106.97-3.65 106.14-1.4 105.89 0.2L105.89 0.2Q101.94 0.2 98.04 0.1 94.14 0 89.24 0L89.24 0Q87.54 0 86.19 0.08 84.84 0.15 83.39 0.15L83.39 0.15Q83.19-0.05 83.22-0.55 83.24-1.05 83.39-1.25L83.39-1.25Q83.69-1.25 84.49-1.33 85.29-1.4 86.02-1.6 86.74-1.8 86.79-2.05L86.79-2.05Q86.99-2.65 87.02-3.6 87.04-4.55 87.04-5.65L87.04-5.65 87.04-26.5Q87.04-27.6 87.02-28.58 86.99-29.55 86.79-30.15L86.79-30.15Q86.74-30.45 86.02-30.6 85.29-30.75 84.49-30.83 83.69-30.9 83.39-30.9L83.39-30.9Q83.24-31.1 83.22-31.6 83.19-32.1 83.39-32.3L83.39-32.3Q84.89-32.25 86.34-32.18 87.79-32.1 89.19-32.1ZM122.59-32.5L122.59-32.5Q124.14-32.5 125.17-32.33 126.19-32.15 127.27-31.85 128.34-31.55 129.94-31.15L129.94-31.15Q130.24-29.25 130.42-27.23 130.59-25.2 130.64-24.2L130.64-24.2Q130.69-23.95 130.29-23.83 129.89-23.7 129.64-23.7L129.64-23.7Q129.29-23.7 129.09-23.9L129.09-23.9Q128.99-24.8 128.49-26 127.99-27.2 127.12-28.3 126.24-29.4 125.02-30.13 123.79-30.85 122.24-30.85L122.24-30.85Q120.24-30.85 119.09-30 117.94-29.15 117.44-27.9 116.94-26.65 116.94-25.45L116.94-25.45Q116.94-23.5 117.97-22.2 118.99-20.9 120.56-19.9 122.14-18.9 123.74-17.85L123.74-17.85Q124.94-17.1 126.39-16.2 127.84-15.3 129.19-14.2 130.54-13.1 131.39-11.68 132.24-10.25 132.24-8.45L132.24-8.45Q132.24-5.8 130.77-3.78 129.29-1.75 126.97-0.63 124.64 0.5 122.04 0.5L122.04 0.5Q119.59 0.5 117.31-0.05 115.04-0.6 113.24-0.95L113.24-0.95Q112.94-2.4 112.72-4.05 112.49-5.7 112.37-6.95 112.24-8.2 112.24-8.5L112.24-8.5Q112.49-8.75 112.81-8.93 113.14-9.1 113.49-9.1L113.49-9.1Q113.94-9.1 114.04-8.65L114.04-8.65Q114.19-7.95 114.67-6.73 115.14-5.5 116.06-4.2 116.99-2.9 118.47-2.02 119.94-1.15 122.14-1.15L122.14-1.15Q124.49-1.15 126.24-2.73 127.99-4.3 127.99-7.15L127.99-7.15Q127.99-9.2 127.06-10.35 126.14-11.5 124.67-12.35 123.19-13.2 121.49-14.15L121.49-14.15Q119.64-15.25 117.67-16.57 115.69-17.9 114.34-19.7 112.99-21.5 112.99-23.95L112.99-23.95Q112.99-26.55 114.37-28.48 115.74-30.4 117.94-31.45 120.14-32.5 122.59-32.5ZM146.74-5.65L146.74-5.65 146.74-13.05Q146.74-13.7 146.39-14.4L146.39-14.4Q145.34-16.35 144.51-17.8 143.69-19.25 142.94-20.55 142.19-21.85 141.36-23.33 140.54-24.8 139.44-26.75L139.44-26.75Q138.64-28.1 137.94-28.83 137.24-29.55 136.24-30.15L136.24-30.15Q135.59-30.55 134.76-30.73 133.94-30.9 133.49-30.9L133.49-30.9Q133.29-30.9 133.29-31.5 133.29-32.1 133.49-32.3L133.49-32.3Q135.29-32.25 136.54-32.18 137.79-32.1 139.59-32.1L139.59-32.1Q141.39-32.1 142.89-32.18 144.39-32.25 145.84-32.3L145.84-32.3Q145.94-32.1 145.94-31.5 145.94-30.9 145.74-30.9L145.74-30.9Q145.39-30.9 144.69-30.78 143.99-30.65 143.41-30.33 142.84-30 142.84-29.35L142.84-29.35Q142.84-28.8 143.39-27.9L143.39-27.9 150.19-16.15Q151.09-17.75 152.09-19.68 153.09-21.6 153.99-23.43 154.89-25.25 155.56-26.7 156.24-28.15 156.54-28.8L156.54-28.8Q156.59-28.9 156.64-29.13 156.69-29.35 156.69-29.55L156.69-29.55Q156.69-29.95 156.01-30.4 155.34-30.85 153.29-30.85L153.29-30.85Q153.19-30.85 153.16-31.53 153.14-32.2 153.19-32.3L153.19-32.3Q154.54-32.25 155.61-32.15 156.69-32.05 158.04-32.05L158.04-32.05Q159.34-32.05 160.16-32.1 160.99-32.15 161.74-32.2 162.49-32.25 163.44-32.3L163.44-32.3Q163.54-32.1 163.49-31.48 163.44-30.85 163.34-30.85L163.34-30.85Q163.14-30.85 162.29-30.78 161.44-30.7 160.49-30.3 159.54-29.9 158.99-28.9L158.99-28.9Q158.29-27.7 157.29-25.88 156.29-24.05 155.19-22.03 154.09-20 153.06-18.07 152.04-16.15 151.24-14.7L151.24-14.7Q151.04-14.35 151.04-14.05 151.04-13.75 151.04-13.45L151.04-13.45Q151.04-13.3 151.04-13.2L151.04-13.2Q151.04-11.75 151.04-9.98 151.04-8.2 151.01-6.93 150.99-5.65 150.99-5.65L150.99-5.65Q150.99-5.5 150.99-5.35 150.99-5.2 150.99-5.05L150.99-5.05Q150.99-4.1 151.01-3.33 151.04-2.55 151.19-2.05L151.19-2.05Q151.29-1.8 151.99-1.6 152.69-1.4 153.49-1.33 154.29-1.25 154.59-1.25L154.59-1.25Q154.74-1.05 154.76-0.55 154.79-0.05 154.59 0.15L154.59 0.15Q153.09 0.05 151.71-0.03 150.34-0.1 148.89-0.1L148.89-0.1Q147.49-0.1 146.04-0.03 144.59 0.05 143.09 0.15L143.09 0.15Q142.89-0.05 142.91-0.55 142.94-1.05 143.09-1.25L143.09-1.25Q143.39-1.25 144.19-1.33 144.99-1.4 145.71-1.6 146.44-1.8 146.49-2.05L146.49-2.05Q146.69-2.65 146.71-3.6 146.74-4.55 146.74-5.65ZM175.49-32.5L175.49-32.5Q177.04-32.5 178.06-32.33 179.09-32.15 180.16-31.85 181.24-31.55 182.84-31.15L182.84-31.15Q183.14-29.25 183.31-27.23 183.49-25.2 183.54-24.2L183.54-24.2Q183.59-23.95 183.19-23.83 182.79-23.7 182.54-23.7L182.54-23.7Q182.19-23.7 181.99-23.9L181.99-23.9Q181.89-24.8 181.39-26 180.89-27.2 180.01-28.3 179.14-29.4 177.91-30.13 176.69-30.85 175.14-30.85L175.14-30.85Q173.14-30.85 171.99-30 170.84-29.15 170.34-27.9 169.84-26.65 169.84-25.45L169.84-25.45Q169.84-23.5 170.86-22.2 171.89-20.9 173.46-19.9 175.04-18.9 176.64-17.85L176.64-17.85Q177.84-17.1 179.29-16.2 180.74-15.3 182.09-14.2 183.44-13.1 184.29-11.68 185.14-10.25 185.14-8.45L185.14-8.45Q185.14-5.8 183.66-3.78 182.19-1.75 179.86-0.63 177.54 0.5 174.94 0.5L174.94 0.5Q172.49 0.5 170.21-0.05 167.94-0.6 166.14-0.95L166.14-0.95Q165.84-2.4 165.61-4.05 165.39-5.7 165.26-6.95 165.14-8.2 165.14-8.5L165.14-8.5Q165.39-8.75 165.71-8.93 166.04-9.1 166.39-9.1L166.39-9.1Q166.84-9.1 166.94-8.65L166.94-8.65Q167.09-7.95 167.56-6.73 168.04-5.5 168.96-4.2 169.89-2.9 171.36-2.02 172.84-1.15 175.04-1.15L175.04-1.15Q177.39-1.15 179.14-2.73 180.89-4.3 180.89-7.15L180.89-7.15Q180.89-9.2 179.96-10.35 179.04-11.5 177.56-12.35 176.09-13.2 174.39-14.15L174.39-14.15Q172.54-15.25 170.56-16.57 168.59-17.9 167.24-19.7 165.89-21.5 165.89-23.95L165.89-23.95Q165.89-26.55 167.26-28.48 168.64-30.4 170.84-31.45 173.04-32.5 175.49-32.5ZM191.88-6.8L191.88-6.8Q191.88-6.8 192.36-8.03 192.83-9.25 193.63-11.35 194.43-13.45 195.46-16.03 196.48-18.6 197.53-21.33 198.58-24.05 199.56-26.55 200.53-29.05 201.28-30.95L201.28-30.95Q201.48-31.35 202.16-31.85 202.83-32.35 203.18-32.35L203.18-32.35Q203.28-32.35 203.31-32.33 203.33-32.3 203.43-32.25L203.43-32.25 213.38-6.15Q214.48-3.25 214.63-2.95L214.63-2.95Q214.88-2.4 215.61-2 216.33-1.6 217.06-1.43 217.78-1.25 217.98-1.25L217.98-1.25Q218.18-1 218.13-0.48 218.08 0.05 218.03 0.15L218.03 0.15Q216.58 0.05 215.43-0.03 214.28-0.1 212.68-0.1L212.68-0.1Q210.98-0.1 209.86-0.03 208.73 0.05 207.03 0.15L207.03 0.15Q206.83-0.05 206.86-0.55 206.88-1.05 207.08-1.25L207.08-1.25Q207.53-1.25 208.48-1.43 209.43-1.6 209.78-1.9L209.78-1.9Q209.98-2.1 209.98-2.6L209.98-2.6Q209.98-3.05 209.66-4.13 209.33-5.2 208.83-6.55 208.33-7.9 207.83-9.18 207.33-10.45 207.01-11.28 206.68-12.1 206.68-12.1L206.68-12.1Q206.68-12.1 206.58-12.2 206.48-12.3 206.38-12.3L206.38-12.3Q205.63-12.35 204.53-12.35 203.43-12.35 202.48-12.35L202.48-12.35Q202.23-12.35 201.98-12.35 201.73-12.35 201.53-12.35L201.53-12.35Q200.03-12.35 198.98-12.33 197.93-12.3 196.28-12.2L196.28-12.2Q196.23-12.2 196.13-12.13 196.03-12.05 196.03-12.05L196.03-12.05Q196.03-12.05 195.66-11.05 195.28-10.05 194.76-8.68 194.23-7.3 193.83-6.1L193.83-6.1Q193.38-4.85 193.26-4 193.13-3.15 193.13-2.65L193.13-2.65Q193.13-2.1 193.91-1.78 194.68-1.45 195.51-1.35 196.33-1.25 196.53-1.25L196.53-1.25Q196.63-1.15 196.68-0.63 196.73-0.1 196.63 0.15L196.63 0.15Q195.68 0.1 195.01 0.05 194.33 0 193.66-0.05 192.98-0.1 191.88-0.1L191.88-0.1Q190.78-0.1 190.03-0.05 189.28 0 188.53 0.05 187.78 0.1 186.63 0.15L186.63 0.15Q186.53 0.05 186.53-0.48 186.53-1 186.63-1.25L186.63-1.25Q187.08-1.25 188.16-1.48 189.23-1.7 189.58-2.2L189.58-2.2Q190.33-3.15 190.86-4.33 191.38-5.5 191.88-6.8ZM205.73-14.65L201.43-26.45 196.98-14.55Q196.98-14.55 197.01-14.45 197.03-14.35 197.08-14.35L197.08-14.35Q198.03-14.3 199.36-14.28 200.68-14.25 201.48-14.25L201.48-14.25Q202.63-14.25 203.56-14.3 204.48-14.35 205.58-14.4L205.58-14.4Q205.68-14.4 205.71-14.53 205.73-14.65 205.73-14.65L205.73-14.65ZM225.83-32.1L225.83-32.1Q227.28-32.1 228.66-32.18 230.03-32.25 231.53-32.3L231.53-32.3Q231.73-32.1 231.71-31.6 231.68-31.1 231.53-30.9L231.53-30.9Q231.23-30.9 230.43-30.83 229.63-30.75 228.93-30.6 228.23-30.45 228.13-30.15L228.13-30.15Q227.98-29.65 227.96-28.85 227.93-28.05 227.93-27.1L227.93-27.1Q227.93-26.95 227.93-26.8 227.93-26.65 227.93-26.5L227.93-26.5 227.93-5.65Q227.93-5.5 227.93-5.35 227.93-5.2 227.93-5.05L227.93-5.05Q227.93-4.1 227.96-3.33 227.98-2.55 228.13-2.05L228.13-2.05Q228.23-1.8 228.93-1.6 229.63-1.4 230.43-1.33 231.23-1.25 231.53-1.25L231.53-1.25Q231.68-1.05 231.71-0.55 231.73-0.05 231.53 0.15L231.53 0.15Q230.03 0.05 228.66-0.03 227.28-0.1 225.83-0.1L225.83-0.1Q224.43-0.1 222.98-0.03 221.53 0.05 220.03 0.15L220.03 0.15Q219.83-0.05 219.86-0.55 219.88-1.05 220.03-1.25L220.03-1.25Q220.33-1.25 221.13-1.33 221.93-1.4 222.66-1.6 223.38-1.8 223.43-2.05L223.43-2.05Q223.63-2.65 223.66-3.6 223.68-4.55 223.68-5.65L223.68-5.65 223.68-26.5Q223.68-27.6 223.66-28.58 223.63-29.55 223.43-30.15L223.43-30.15Q223.38-30.45 222.66-30.6 221.93-30.75 221.13-30.83 220.33-30.9 220.03-30.9L220.03-30.9Q219.88-31.1 219.86-31.6 219.83-32.1 220.03-32.3L220.03-32.3Q221.53-32.25 222.98-32.18 224.43-32.1 225.83-32.1Z" opacity="1" transform="matrix(1,0,0,1,0,0)" fill="#000000" class="wordmark-text-0" data-fill-palette-color="primary" id="text-0"></path></svg></g></svg></g></svg></g></svg></g><g transform="matrix(1,0,0,1,148.54901326761458,0)"><svg viewBox="0 0 98.42197346477082 78.65634636861418" height="78.65634636861418" width="98.42197346477082"><g><svg xmlns="http://www.w3.org/2000/svg" xmlns:xlink="http://www.w3.org/1999/xlink" version="1.1" x="8" y="0" viewBox="5.278 5.966 91.054 86.894" enable-background="new 0 0 100 100" xml:space="preserve" height="78.65634636861418" width="82.42197346477082" class="icon-icon-0" data-fill-palette-color="accent" id="icon-0"><g fill="#6b7280" data-fill-palette-color="accent"><g fill="#6b7280" data-fill-palette-color="accent"><g fill="#6b7280" data-fill-palette-color="accent"><path d="M5.278 5.966V92.86h91.054V5.966H5.278zM90.178 87.07H11.432V11.757h78.746V87.07z" fill="#000000" data-fill-palette-color="accent"></path><path d="M15.065 15.39v68.047h71.48V15.39H15.065zM44.897 75.013c-14.024 0-25.432-11.408-25.432-25.432S30.873 24.15 44.897 24.15c14.023 0 25.432 11.408 25.432 25.432S58.92 75.013 44.897 75.013zM79.983 65.376c0 1.208-0.977 2.184-2.185 2.184-1.203 0-2.184-0.976-2.184-2.184v-31.59c0-1.203 0.981-2.184 2.184-2.184 1.208 0 2.185 0.981 2.185 2.184V65.376z" fill="#000000" data-fill-palette-color="accent"></path><path d="M44.897 27.783c-12.021 0-21.798 9.777-21.798 21.798 0 12.021 9.777 21.798 21.798 21.798 12.021 0 21.798-9.778 21.798-21.798C66.695 37.56 56.918 27.783 44.897 27.783zM60.809 51.779h-4.005c-0.31 1.712-0.985 3.297-1.944 4.677l2.748 2.748c0.853 0.854 0.853 2.239 0 3.093-0.409 0.413-0.959 0.64-1.544 0.64-0.581 0-1.131-0.227-1.544-0.64l-2.752-2.752c-1.38 0.963-2.97 1.639-4.686 1.948v3.883c0 1.208-0.981 2.184-2.185 2.184-1.204 0-2.185-0.976-2.185-2.184v-3.883c-1.716-0.313-3.31-0.99-4.691-1.948l-2.751 2.752c-0.409 0.413-0.959 0.64-1.544 0.64-0.582 0-1.131-0.227-1.544-0.64-0.85-0.854-0.85-2.239 0-3.093l2.752-2.752c-0.959-1.376-1.636-2.965-1.944-4.673h-4.006c-1.212 0-2.198-0.985-2.198-2.198 0-1.212 0.985-2.198 2.198-2.198h4.006c0.309-1.707 0.985-3.297 1.944-4.673l-2.752-2.752c-0.413-0.413-0.64-0.963-0.64-1.544 0-0.586 0.227-1.135 0.64-1.548 0.413-0.409 0.962-0.64 1.544-0.64 0.585 0 1.135 0.232 1.544 0.64l2.751 2.752c1.381-0.958 2.975-1.635 4.691-1.948v-3.883c0-1.203 0.981-2.184 2.185-2.184 1.204 0 2.185 0.981 2.185 2.184v3.883c1.716 0.309 3.306 0.985 4.686 1.948l2.752-2.752c0.413-0.409 0.963-0.64 1.544-0.64 0.585 0 1.135 0.232 1.544 0.64 0.413 0.413 0.64 0.963 0.64 1.548 0 0.581-0.227 1.131-0.64 1.544l-2.748 2.747c0.959 1.381 1.635 2.965 1.944 4.677h4.005c1.212 0 2.198 0.986 2.198 2.198C63.007 50.794 62.022 51.779 60.809 51.779z" fill="#000000" data-fill-palette-color="accent"></path><path d="M53.376 49.581c0 0.599-0.064 1.181-0.182 1.744-0.013 0.077-0.032 0.15-0.054 0.227-0.014 0.077-0.032 0.154-0.055 0.227-0.195 0.727-0.481 1.412-0.853 2.048-0.036 0.068-0.077 0.136-0.123 0.2-0.036 0.068-0.077 0.132-0.122 0.195-0.64 0.977-1.471 1.807-2.447 2.448-0.064 0.041-0.132 0.082-0.196 0.123-0.067 0.045-0.136 0.086-0.204 0.123-0.64 0.372-1.33 0.663-2.057 0.858-0.077 0.018-0.15 0.041-0.227 0.054-0.073 0.018-0.15 0.036-0.227 0.055-0.559 0.114-1.135 0.177-1.73 0.177-0.595 0-1.172-0.059-1.731-0.177-0.077-0.018-0.154-0.032-0.227-0.055-0.077-0.014-0.154-0.036-0.227-0.054-0.731-0.195-1.421-0.486-2.061-0.858-0.068-0.036-0.137-0.077-0.205-0.118-0.063-0.041-0.127-0.082-0.191-0.127-0.977-0.636-1.812-1.471-2.447-2.448-0.046-0.063-0.087-0.127-0.128-0.191-0.041-0.068-0.082-0.136-0.122-0.204-0.368-0.636-0.658-1.322-0.849-2.048-0.023-0.073-0.042-0.15-0.055-0.227-0.022-0.077-0.041-0.15-0.054-0.227-0.118-0.563-0.182-1.144-0.182-1.744 0-0.6 0.064-1.181 0.182-1.744 0.013-0.077 0.032-0.15 0.054-0.227 0.013-0.077 0.032-0.154 0.055-0.227 0.191-0.726 0.481-1.412 0.849-2.048 0.041-0.068 0.082-0.136 0.122-0.204 0.041-0.063 0.082-0.127 0.128-0.191 0.635-0.976 1.471-1.812 2.447-2.448 0.064-0.045 0.128-0.086 0.191-0.127 0.068-0.041 0.137-0.082 0.205-0.118 0.64-0.373 1.33-0.663 2.061-0.858 0.073-0.018 0.15-0.041 0.227-0.055 0.073-0.023 0.15-0.036 0.227-0.055 0.559-0.118 1.135-0.177 1.731-0.177 0.595 0 1.172 0.063 1.73 0.177 0.077 0.018 0.154 0.036 0.227 0.055 0.077 0.014 0.15 0.036 0.227 0.055 0.726 0.195 1.416 0.486 2.057 0.858 0.068 0.036 0.137 0.077 0.204 0.123 0.064 0.041 0.132 0.082 0.196 0.122 0.976 0.64 1.807 1.471 2.447 2.448 0.045 0.064 0.087 0.127 0.122 0.195 0.046 0.064 0.087 0.132 0.123 0.2 0.373 0.636 0.658 1.322 0.853 2.048 0.023 0.073 0.041 0.15 0.055 0.227 0.022 0.077 0.041 0.15 0.054 0.227C53.312 48.401 53.376 48.982 53.376 49.581z" fill="#000000" data-fill-palette-color="accent"></path></g></g></g></svg></g></svg></g><g><rect width="148.54901326761458" height="5.132641453597018" y="72.52370491501716" x="246.9709867323854" fill="#000000" data-fill-palette-color="accent"></rect><rect width="148.54901326761458" height="5.132641453597018" y="72.52370491501716" x="0" fill="#000000" data-fill-palette-color="accent"></rect><rect width="148.54901326761458" height="5.132641453597018" y="62.25842200782313" x="246.9709867323854" fill="#000000" data-fill-palette-color="accent"></rect><rect width="148.54901326761458" height="5.132641453597018" y="62.25842200782313" x="0" fill="#000000" data-fill-palette-color="accent"></rect></g></svg></g><defs></defs></svg><rect width="395.52" height="149.00744766668302" fill="none" stroke="none" visibility="hidden"></rect></g></svg></g></svg>