<svg xmlns="http://www.w3.org/2000/svg" version="1.1" xmlns:xlink="http://www.w3.org/1999/xlink" xmlns:svgjs="http://svgjs.dev/svgjs" width="1500" height="1500" viewBox="0 0 1500 1500"><rect width="1500" height="1500" fill="#ffffff"></rect><g transform="matrix(0.6666666666666666,0,0,0.6666666666666666,249.39393939393938,438.58569500674764)"><svg viewBox="0 0 396 247" data-background-color="#ffffff" preserveAspectRatio="xMidYMid meet" height="935" width="1500" xmlns="http://www.w3.org/2000/svg" xmlns:xlink="http://www.w3.org/1999/xlink"><g id="tight-bounds" transform="matrix(1,0,0,1,0.2400000000000091,-0.09999999999999432)"><svg viewBox="0 0 395.52 247.2" height="247.2" width="395.52"><g><svg></svg></g><g><svg viewBox="0 0 395.52 247.2" height="247.2" width="395.52"><g transform="matrix(1,0,0,1,75.54432,103.32756285261489)"><svg viewBox="0 0 244.43135999999998 40.5448742947702" height="40.5448742947702" width="244.43135999999998"><g><svg viewBox="0 0 244.43135999999998 40.5448742947702" height="40.5448742947702" width="244.43135999999998"><g><svg viewBox="0 0 244.43135999999998 40.5448742947702" height="40.5448742947702" width="244.43135999999998"><g><svg viewBox="0 0 244.43135999999998 40.5448742947702" height="40.5448742947702" width="244.43135999999998"><g id="textblocktransform"><svg viewBox="0 0 244.43135999999998 40.5448742947702" height="40.5448742947702" width="244.43135999999998" id="textblock"><g><svg viewBox="0 0 244.43135999999998 40.5448742947702" height="40.5448742947702" width="244.43135999999998"><g transform="matrix(1,0,0,1,0,0)"><svg width="244.43135999999998" viewBox="2.53 -32.29 197.17 32.71" height="40.5448742947702" data-palette-color="#ffa500"><path d="M11.11 0.42L11.11 0.42Q8.33 0.42 6.09-0.69 3.85-1.81 2.53-3.4L2.53-3.4 3.68-8.19Q4.65-6.25 6.6-4.69 8.54-3.13 11.25-3.13L11.25-3.13Q13.72-3.13 15.33-4.69 16.94-6.25 16.94-8.54L16.94-8.54Q16.94-10.21 16.15-11.28 15.35-12.36 14.34-12.99 13.33-13.61 12.74-13.89L12.74-13.89 8.92-15.83Q8.02-16.32 6.68-17.19 5.35-18.06 4.34-19.58 3.33-21.11 3.33-23.54L3.33-23.54Q3.33-25.9 4.43-27.74 5.52-29.58 7.48-30.63 9.44-31.67 11.98-31.67L11.98-31.67Q14.48-31.67 16.39-30.78 18.3-29.9 19.38-28.96L19.38-28.96 18.23-24.17Q17.36-25.63 15.66-26.91 13.96-28.19 11.81-28.19L11.81-28.19Q9.72-28.19 8.47-26.96 7.22-25.73 7.22-23.92L7.22-23.92Q7.22-22.53 7.86-21.63 8.51-20.73 9.32-20.21 10.14-19.69 10.66-19.41L10.66-19.41 14.55-17.47Q15.24-17.12 16.3-16.49 17.36-15.87 18.4-14.84 19.44-13.82 20.14-12.34 20.83-10.87 20.83-8.78L20.83-8.78Q20.83-6.11 19.57-4.03 18.3-1.94 16.11-0.76 13.92 0.42 11.11 0.42ZM27.53 0L23.54 0 36.77-32.29 36.84-32.29 50.07 0 45.87 0 42.19-9.27 31.25-9.27 27.53 0ZM35.03-18.75L32.57-12.57 40.87-12.57 38.4-18.75Q37.95-19.93 37.53-21.08 37.12-22.22 36.7-23.82L36.7-23.82Q36.28-22.22 35.9-21.09 35.52-19.97 35.03-18.75L35.03-18.75ZM59.02 0L55.06 0 55.06-31.25 70.48-31.25 70.48-27.71 59.02-27.71 59.02-21.04 69.44-21.04 69.44-17.5 59.02-17.5 59.02 0ZM91.31 0L75.9 0 75.9-31.25 91.31-31.25 91.31-27.71 79.85-27.71 79.85-21.04 88.88-21.04 88.88-17.5 79.85-17.5 79.85-3.54 91.31-3.54 91.31 0ZM104.5 0.42L104.5 0.42Q101.73 0.42 99.49-0.69 97.25-1.81 95.93-3.4L95.93-3.4 97.07-8.19Q98.05-6.25 99.99-4.69 101.93-3.13 104.64-3.13L104.64-3.13Q107.11-3.13 108.72-4.69 110.34-6.25 110.34-8.54L110.34-8.54Q110.34-10.21 109.54-11.28 108.74-12.36 107.73-12.99 106.73-13.61 106.14-13.89L106.14-13.89 102.32-15.83Q101.41-16.32 100.08-17.19 98.74-18.06 97.73-19.58 96.73-21.11 96.73-23.54L96.73-23.54Q96.73-25.9 97.82-27.74 98.91-29.58 100.88-30.63 102.84-31.67 105.37-31.67L105.37-31.67Q107.87-31.67 109.78-30.78 111.69-29.9 112.77-28.96L112.77-28.96 111.62-24.17Q110.75-25.63 109.05-26.91 107.35-28.19 105.2-28.19L105.2-28.19Q103.12-28.19 101.87-26.96 100.62-25.73 100.62-23.92L100.62-23.92Q100.62-22.53 101.26-21.63 101.9-20.73 102.72-20.21 103.53-19.69 104.05-19.41L104.05-19.41 107.94-17.47Q108.64-17.12 109.69-16.49 110.75-15.87 111.8-14.84 112.84-13.82 113.53-12.34 114.23-10.87 114.23-8.78L114.23-8.78Q114.23-6.11 112.96-4.03 111.69-1.94 109.5-0.76 107.32 0.42 104.5 0.42ZM130.27 0L126.31 0 126.31-15.1 116.93-31.25 121.52-31.25 126.65-22.15Q127.14-21.28 127.57-20.43 128.01-19.58 128.46-18.47L128.46-18.47Q128.91-19.58 129.36-20.43 129.81-21.28 130.3-22.15L130.3-22.15 135.47-31.25 139.64-31.25 130.27-15.1 130.27 0ZM151.37 0.42L151.37 0.42Q148.6 0.42 146.36-0.69 144.12-1.81 142.8-3.4L142.8-3.4 143.94-8.19Q144.92-6.25 146.86-4.69 148.8-3.13 151.51-3.13L151.51-3.13Q153.98-3.13 155.59-4.69 157.21-6.25 157.21-8.54L157.21-8.54Q157.21-10.21 156.41-11.28 155.61-12.36 154.6-12.99 153.6-13.61 153.01-13.89L153.01-13.89 149.19-15.83Q148.28-16.32 146.95-17.19 145.61-18.06 144.6-19.58 143.6-21.11 143.6-23.54L143.6-23.54Q143.6-25.9 144.69-27.74 145.78-29.58 147.75-30.63 149.71-31.67 152.24-31.67L152.24-31.67Q154.74-31.67 156.65-30.78 158.56-29.9 159.64-28.96L159.64-28.96 158.49-24.17Q157.62-25.63 155.92-26.91 154.22-28.19 152.07-28.19L152.07-28.19Q149.99-28.19 148.74-26.96 147.49-25.73 147.49-23.92L147.49-23.92Q147.49-22.53 148.13-21.63 148.77-20.73 149.59-20.21 150.4-19.69 150.92-19.41L150.92-19.41 154.81-17.47Q155.51-17.12 156.56-16.49 157.62-15.87 158.67-14.84 159.71-13.82 160.4-12.34 161.1-10.87 161.1-8.78L161.1-8.78Q161.1-6.11 159.83-4.03 158.56-1.94 156.37-0.76 154.19 0.42 151.37 0.42ZM167.79 0L163.8 0 177.03-32.29 177.1-32.29 190.33 0 186.13 0 182.45-9.27 171.51-9.27 167.79 0ZM175.29-18.75L172.83-12.57 181.13-12.57 178.66-18.75Q178.21-19.93 177.79-21.08 177.38-22.22 176.96-23.82L176.96-23.82Q176.54-22.22 176.16-21.09 175.78-19.97 175.29-18.75L175.29-18.75ZM199.7 0L195.74 0 195.74-31.25 199.7-31.25 199.7 0Z" opacity="1" transform="matrix(1,0,0,1,0,0)" fill="#ffa500" class="wordmark-text-0" data-fill-palette-color="primary" id="text-0"></path></svg></g></svg></g></svg></g></svg></g><g></g></svg></g></svg></g></svg></g><g><path d="M79.244 93.756A122.216 122.216 0 0 1 316.276 93.756L312.619 93.756A118.559 118.559 0 0 0 82.901 93.756L79.244 93.756M79.244 153.444A122.216 122.216 0 0 0 316.276 153.444L312.619 153.444A118.559 118.559 0 0 1 82.901 153.444L79.244 153.444" fill="#ffa500" stroke="transparent" data-fill-palette-color="tertiary"></path></g></svg></g><defs></defs></svg><rect width="395.52" height="247.2" fill="none" stroke="none" visibility="hidden"></rect></g></svg></g></svg>